<svg width="17" height="17" viewBox="0 0 17 17" fill="none" xmlns="http://www.w3.org/2000/svg">
<path d="M4.44378 10.3284L10.0731 3.90631L10.6606 3.22989C11.0867 2.73941 11.8251 2.67571 12.3289 3.08598C12.8723 3.52853 12.924 4.33994 12.4412 4.8479L12.0551 5.25416L6.10868 12.3106L3.17517 13.262L4.44378 10.3284Z" fill="#FFF7B3"/>
<path d="M12.4412 4.8479L12.055 5.25416L10.073 3.90631L10.6606 3.22989C11.0866 2.73941 11.8251 2.67571 12.3288 3.08598C12.8722 3.52853 12.9239 4.33994 12.4412 4.8479Z" fill="#FF6464"/>
<path d="M4.44373 10.3284L10.073 3.90625L12.055 5.2541L6.10862 12.3105L4.44373 10.3284Z" fill="#FFA95A"/>
<path d="M3.17517 13.262L3.58661 12.3105L4.01037 12.9911L3.17517 13.262Z" fill="#FFF7B3"/>
<path d="M3.17517 13.262L3.58661 12.3105L4.01037 12.9911L3.17517 13.262Z" fill="#3D3D3D"/>
<path fill-rule="evenodd" clip-rule="evenodd" d="M14.3275 1.01611H2.32751C1.77523 1.01611 1.32751 1.46383 1.32751 2.01611V14.0161C1.32751 14.5684 1.77523 15.0161 2.32751 15.0161H14.3275C14.8798 15.0161 15.3275 14.5684 15.3275 14.0161V2.01611C15.3275 1.46383 14.8798 1.01611 14.3275 1.01611ZM2.32751 0.0161133C1.22295 0.0161133 0.327515 0.911544 0.327515 2.01611V14.0161C0.327515 15.1207 1.22295 16.0161 2.32751 16.0161H14.3275C15.4321 16.0161 16.3275 15.1207 16.3275 14.0161V2.01611C16.3275 0.911544 15.4321 0.0161133 14.3275 0.0161133H2.32751Z" fill="white"/>
<path d="M9.83618 4.17646L10.073 3.90625L12.0551 5.2541L11.6852 5.69299L9.83618 4.17646Z" fill="#C6C6C6"/>
</svg>
