<svg width="17" height="17" viewBox="0 0 17 17" fill="none" xmlns="http://www.w3.org/2000/svg">
<path d="M2.92084 11.5229L11.5428 1.68658L12.4428 0.650537C13.0953 -0.100703 14.2264 -0.198267 14.998 0.430131C15.8302 1.10795 15.9094 2.35074 15.17 3.12875L14.5786 3.751L5.47086 14.5589L0.977783 16.0161L2.92084 11.5229Z" fill="#FFF7B3"/>
<path d="M15.1699 3.12875L14.5785 3.751L11.5427 1.68658L12.4427 0.650537C13.0952 -0.100703 14.2263 -0.198267 14.9979 0.430131C15.8301 1.10795 15.9093 2.35074 15.1699 3.12875Z" fill="#FF6464"/>
<path d="M2.9209 11.5229L11.5429 1.68652L14.5787 3.75094L5.47092 14.5588L2.9209 11.5229Z" fill="#FFA95A"/>
<path d="M2.9209 11.5227L3.81153 10.4412L6.71917 13.0846L5.47092 14.5587L2.9209 11.5227Z" fill="#161616"/>
<path d="M0.977783 16.0161L1.60796 14.5588L2.25701 15.6012L0.977783 16.0161Z" fill="#FFF7B3"/>
<path d="M0.977783 16.0161L1.60796 14.5588L2.25701 15.6012L0.977783 16.0161Z" fill="#FFF7B2"/>
<path d="M10.5869 2.71569L11.5429 1.68652L14.5787 3.75094L13.5874 5.03865L10.5869 2.71569Z" fill="#161616"/>
</svg>
